# xmcd
#
# Track frame offsets:
#	150
#	12797
#	39927
#	59640
#	76365
#	98835
#	111120
#	127962
#	144445
#	164517
#	180855
#
# Disc length: 2799 seconds
#
# Revision: 4
# Processed by: cddbd v1.5PL3 Copyright (c) Steve Scherf et al.
# Submitted via: CDex 1.50Beta5
#
DISCID=830aed0b
DTITLE=憂歌団 - ライブ・アット久保講堂1981 Disc 1
DYEAR=1994
DGENRE=Rock
TTITLE0=嫌んなった
TTITLE1=シカゴ・バウンド
TTITLE2=10$の恋
TTITLE3=ちょいとそこ行くネエチャン
TTITLE4=All Of Me
TTITLE5=ドツボ節
TTITLE6=はんか街のはんぱ女
TTITLE7=Rollin’&Tumblin
TTITLE8=Slow Train Blues
TTITLE9=カントリー・ガール
TTITLE10=けだるい二人
EXTD=
EXTT0=
EXTT1=
EXTT2=
EXTT3=
EXTT4=
EXTT5=
EXTT6=
EXTT7=
EXTT8=
EXTT9=
EXTT10=
PLAYORDER=
